<svg width="16" height="20" viewBox="0 0 16 20" fill="none" xmlns="http://www.w3.org/2000/svg">
<path d="M12.8999 0.836914H3.0999C2.45012 0.836914 1.82695 1.08667 1.36749 1.53123C0.908027 1.9758 0.649902 2.57876 0.649902 3.20747V17.4308C0.649902 18.0595 0.908027 18.6625 1.36749 19.1071C1.82695 19.5516 2.45012 19.8014 3.0999 19.8014H12.8999C13.5497 19.8014 14.1728 19.5516 14.6323 19.1071C15.0918 18.6625 15.3499 18.0595 15.3499 17.4308V3.20747C15.3499 2.57876 15.0918 1.9758 14.6323 1.53123C14.1728 1.08667 13.5497 0.836914 12.8999 0.836914V0.836914ZM13.7166 16.6406C13.7166 16.8502 13.6305 17.0512 13.4774 17.1994C13.3242 17.3476 13.1165 17.4308 12.8999 17.4308H3.0999C2.88331 17.4308 2.67559 17.3476 2.52243 17.1994C2.36928 17.0512 2.28324 16.8502 2.28324 16.6406V3.99766C2.28324 3.78809 2.36928 3.5871 2.52243 3.43891C2.67559 3.29072 2.88331 3.20747 3.0999 3.20747H12.8999C13.1165 3.20747 13.3242 3.29072 13.4774 3.43891C13.6305 3.5871 13.7166 3.78809 13.7166 3.99766V16.6406Z" fill="#FFAF2A"/>
<path d="M10.8958 10.7791C10.3556 10.2923 9.71082 9.92724 9.00762 9.71003L8.46209 9.50853V6.97993C9.2312 7.04144 9.98636 7.21459 10.7022 7.49355L11.2257 6.22293C10.347 5.87547 9.41091 5.68382 8.46209 5.65716V4.50586H7.50986V5.67138C6.75066 5.71465 6.02198 5.97571 5.41674 6.42127C5.17058 6.60898 4.97282 6.84942 4.83904 7.12366C4.70526 7.39791 4.63911 7.69846 4.64581 8.00164C4.62855 8.54961 4.82141 9.08438 5.18726 9.503C5.66324 9.98024 6.25172 10.3387 6.90226 10.5476L7.50577 10.7633V13.3607C7.00633 13.3472 6.51012 13.2785 6.02679 13.156C5.52936 13.0421 5.04568 12.8779 4.58374 12.6661V14.1335C5.51097 14.4984 6.50493 14.6779 7.50577 14.6613V16.1248H8.45964V14.6179C9.26052 14.5759 10.0282 14.2942 10.6565 13.8119C10.9033 13.6076 11.1 13.3527 11.2324 13.0656C11.3647 12.7786 11.4294 12.4667 11.4217 12.1525C11.4347 11.6464 11.2465 11.1548 10.8958 10.7791V10.7791ZM7.50414 9.16559C7.16278 9.05581 6.84878 8.87847 6.58212 8.64486C6.41032 8.46615 6.31844 8.229 6.32651 7.98505C6.32461 7.86366 6.35067 7.74338 6.40279 7.63294C6.45492 7.52251 6.5318 7.42469 6.62786 7.34658C6.88036 7.15444 7.18443 7.03626 7.50414 7.00601V9.16559ZM8.45801 13.3022V11.0897C8.81141 11.1968 9.14121 11.3664 9.43066 11.5899C9.5258 11.6736 9.60106 11.7763 9.65125 11.8909C9.70144 12.0055 9.72537 12.1292 9.72139 12.2536C9.72248 12.8273 9.30135 13.1768 8.45801 13.3022V13.3022Z" fill="#FFAF2A"/>
</svg>
