<?xml version="1.0" standalone="no"?>
<!DOCTYPE svg PUBLIC "-//W3C//DTD SVG 20010904//EN"
 "http://www.w3.org/TR/2001/REC-SVG-20010904/DTD/svg10.dtd">
<svg version="1.0" xmlns="http://www.w3.org/2000/svg"
 width="512.000000pt" height="512.000000pt" viewBox="0 0 512.000000 512.000000"
 preserveAspectRatio="xMidYMid meet">

<g transform="translate(0.000000,512.000000) scale(0.100000,-0.100000)"
fill="#000000" stroke="none">
<path d="M3174 4563 c-181 -93 -745 -379 -1252 -638 l-921 -470 365 -3 364 -2
816 416 c585 298 822 414 837 410 12 -3 30 -11 39 -18 9 -7 107 -191 218 -409
l201 -396 162 -6 c89 -4 177 -9 196 -13 l34 -7 -90 174 c-50 96 -197 384 -327
640 -238 469 -251 489 -299 489 -7 0 -161 -75 -343 -167z"/>
<path d="M691 4104 c-184 -49 -329 -208 -361 -394 -8 -46 -10 -475 -8 -1450
l3 -1385 23 -65 c76 -210 244 -362 448 -405 104 -22 3264 -22 3369 0 216 45
397 214 454 425 17 58 21 104 21 212 l0 138 -295 0 c-341 0 -403 8 -531 71
-168 82 -297 242 -339 421 -19 81 -19 255 0 337 20 85 84 204 146 274 68 76
181 150 282 184 81 27 84 27 410 31 l327 4 0 131 c0 81 -6 156 -15 195 -46
195 -206 367 -405 435 l-65 22 -1715 5 -1715 5 -63 34 c-118 64 -177 163 -177
296 0 71 4 89 33 147 36 73 87 124 161 160 45 23 54 23 506 28 l460 5 150 77
150 77 -600 0 c-492 0 -610 -3 -654 -15z"/>
<path d="M2722 3774 c-338 -172 -616 -315 -620 -318 -3 -3 347 -6 777 -6 l783
0 -163 318 c-89 174 -162 318 -163 318 0 1 -277 -140 -614 -312z"/>
<path d="M3948 2311 c-81 -26 -135 -61 -195 -123 -93 -100 -128 -196 -127
-353 1 -162 42 -263 146 -362 61 -57 106 -83 193 -110 54 -16 99 -18 423 -18
l364 0 24 28 24 28 0 438 c0 428 0 439 -21 465 l-20 26 -377 -1 c-336 0 -383
-2 -434 -18z m317 -416 c50 -49 15 -135 -55 -135 -41 0 -80 39 -80 80 0 41 39
80 80 80 19 0 40 -9 55 -25z"/>
</g>
</svg>
