<svg width="20" height="21" viewBox="0 0 20 21" fill="none" xmlns="http://www.w3.org/2000/svg">
<g clip-path="url(#clip0_154_559)">
<path d="M14.9004 0.360107H5.10039C4.45061 0.360107 3.82744 0.621919 3.36798 1.08795C2.90851 1.55398 2.65039 2.18604 2.65039 2.84511V17.7551C2.65039 18.4142 2.90851 19.0462 3.36798 19.5123C3.82744 19.9783 4.45061 20.2401 5.10039 20.2401H14.9004C15.5502 20.2401 16.1733 19.9783 16.6328 19.5123C17.0923 19.0462 17.3504 18.4142 17.3504 17.7551V2.84511C17.3504 2.18604 17.0923 1.55398 16.6328 1.08795C16.1733 0.621919 15.5502 0.360107 14.9004 0.360107V0.360107ZM15.7171 16.9268C15.7171 17.1465 15.631 17.3572 15.4779 17.5125C15.3247 17.6678 15.117 17.7551 14.9004 17.7551H5.10039C4.8838 17.7551 4.67607 17.6678 4.52292 17.5125C4.36977 17.3572 4.28372 17.1465 4.28372 16.9268V3.67344C4.28372 3.45375 4.36977 3.24306 4.52292 3.08772C4.67607 2.93238 4.8838 2.84511 5.10039 2.84511H14.9004C15.117 2.84511 15.3247 2.93238 15.4779 3.08772C15.631 3.24306 15.7171 3.45375 15.7171 3.67344V16.9268Z" fill="#FFAF2A"/>
<path d="M12.8965 10.7822C12.3563 10.2719 11.7116 9.88915 11.0084 9.66146L10.4628 9.45023V6.79957C11.2319 6.86405 11.9871 7.04555 12.7029 7.33798L13.2264 6.00602C12.3478 5.64178 11.4116 5.44088 10.4628 5.41294V4.20605H9.51059V5.42785C8.75139 5.4732 8.02272 5.74686 7.41747 6.21393C7.17131 6.4107 6.97355 6.66275 6.83977 6.95024C6.70599 7.23772 6.63984 7.55278 6.64654 7.8706C6.62928 8.44502 6.82214 9.00561 7.18799 9.44443C7.66397 9.94471 8.25245 10.3205 8.90299 10.5395L9.50651 10.7656V13.4884C9.00707 13.4742 8.51086 13.4022 8.02752 13.2738C7.53009 13.1544 7.04642 12.9823 6.58447 12.7603V14.2985C7.5117 14.681 8.50567 14.8692 9.50651 14.8518V16.3859H10.4604V14.8062C11.2613 14.7622 12.0289 14.467 12.6572 13.9613C12.904 13.7472 13.1007 13.4799 13.2331 13.1791C13.3655 12.8782 13.4301 12.5512 13.4224 12.2218C13.4355 11.6913 13.2472 11.176 12.8965 10.7822V10.7822ZM9.50487 9.09074C9.16351 8.97566 8.84951 8.78976 8.58286 8.54486C8.41105 8.35753 8.31917 8.10893 8.32724 7.85321C8.32534 7.72595 8.3514 7.59987 8.40353 7.4841C8.45565 7.36834 8.53253 7.26579 8.62859 7.18391C8.88109 6.98249 9.18516 6.85861 9.50487 6.8269V9.09074ZM10.4587 13.4271V11.1077C10.8121 11.22 11.1419 11.3978 11.4314 11.6321C11.5265 11.7199 11.6018 11.8275 11.652 11.9476C11.7022 12.0677 11.7261 12.1975 11.7221 12.3279C11.7232 12.9292 11.3021 13.2956 10.4587 13.4271V13.4271Z" fill="#FFAF2A"/>
</g>
<defs>
<clipPath id="clip0_154_559">
<rect width="19.6" height="19.88" fill="white" transform="translate(0.200195 0.360107)"/>
</clipPath>
</defs>
</svg>
