<?xml version="1.0" encoding="UTF-8"?>
<svg version="1.1" xmlns="http://www.w3.org/2000/svg" width="512" height="512">
<path d="M0 0 C0.65867195 -0.00205263 1.3173439 -0.00410527 1.99597561 -0.0062201 C4.19461963 -0.01185722 6.39320035 -0.01043694 8.59185028 -0.00901413 C10.18762455 -0.01159966 11.78339817 -0.01461335 13.37917089 -0.01801753 C17.75821014 -0.02606883 22.13723297 -0.02787606 26.51627874 -0.028615 C31.24178092 -0.03046884 35.96727464 -0.03801789 40.69277191 -0.04475021 C51.02361243 -0.05832125 61.35444906 -0.06435647 71.68529701 -0.06876087 C78.13943438 -0.07152564 84.59357025 -0.07576345 91.0477066 -0.08026505 C108.92697556 -0.09245661 126.80624333 -0.10275582 144.68551636 -0.10614014 C146.40138719 -0.10646949 146.40138719 -0.10646949 148.15192208 -0.10680549 C149.87183892 -0.10713291 149.87183892 -0.10713291 151.62650156 -0.10746694 C153.94987138 -0.1079104 156.2732412 -0.10835696 158.59661102 -0.10880661 C159.74907639 -0.10902804 160.90154175 -0.10924947 162.08893031 -0.10947761 C180.75369827 -0.11342375 199.41842714 -0.13087267 218.08318001 -0.15416613 C237.25865603 -0.17790322 256.43411246 -0.19034308 275.6096034 -0.19150805 C286.3707616 -0.19242354 297.13186887 -0.19814395 307.893013 -0.21632767 C317.05835264 -0.23176055 326.22362563 -0.23683037 335.3889758 -0.22858956 C340.06119775 -0.22469421 344.7332856 -0.22555793 349.40549088 -0.23964691 C353.69165397 -0.252453 357.97758312 -0.25112999 362.2637462 -0.2390562 C363.80551865 -0.23711074 365.34730805 -0.24012373 366.88905674 -0.24890056 C385.94209672 -0.3504047 402.83483823 3.1615662 418.12102509 15.13142776 C418.81969696 15.66509964 419.51836884 16.19877151 420.23821259 16.74861526 C432.63675304 26.83147501 439.85421791 41.71122618 443.12102509 57.13142776 C443.51192629 61.09118681 443.53151386 65.01311321 443.50870514 68.9899025 C443.51678345 70.70427562 443.51678345 70.70427562 443.52502495 72.45328254 C443.53925164 76.25602152 443.53221364 80.0584098 443.52507782 83.86116409 C443.52914334 86.59866607 443.53764966 89.33615052 443.54587555 92.07364273 C443.5630168 98.72171838 443.56391322 105.36969931 443.55866265 112.01779131 C443.55461055 117.42550394 443.55607681 122.83318872 443.5614109 128.24090004 C443.56215933 129.01246868 443.56290775 129.78403731 443.56367885 130.57898682 C443.56521043 132.14676971 443.56674878 133.7145526 443.56829382 135.28233548 C443.58200224 149.96445452 443.57659311 164.64652018 443.5651086 179.32863798 C443.55518055 192.73657627 443.56811243 206.14437647 443.5920428 219.55229346 C443.6164741 233.345655 443.62603162 247.13895234 443.61939007 260.93233508 C443.61590646 268.66578639 443.61807284 276.39913159 443.6356411 284.13256645 C443.65041373 290.71663742 443.65093298 297.30052758 443.63357019 303.88459519 C443.62509847 307.23840938 443.62501127 310.59163836 443.63822174 313.94547653 C443.73240507 339.84292667 443.73240507 339.84292667 439.12102509 351.13142776 C438.84607932 351.81771665 438.57113356 352.50400553 438.2878561 353.21109104 C430.46067721 370.89198176 416.58494471 382.70876971 399.12102509 390.13142776 C387.74106405 394.09915364 376.52811551 394.27964079 364.61260223 394.27186966 C363.0249272 394.27445592 361.43725282 394.2774698 359.84957933 394.28087306 C355.49753318 394.28891577 351.14550354 394.29073111 346.79345083 394.29147053 C342.09521387 394.29332586 337.39698539 394.30087563 332.69875336 394.30760574 C322.42988641 394.32117048 312.16102338 394.32721097 301.89214897 394.3316164 C295.4756881 394.33438213 289.05922872 394.3386201 282.64276886 394.34312057 C264.86468602 394.35531112 247.08660438 394.36561066 229.30851746 394.36899567 C227.60272948 394.36932502 227.60272948 394.36932502 225.86248115 394.36966102 C224.72262337 394.3698793 223.5827656 394.37009757 222.40836668 394.37032247 C220.09871896 394.37076593 217.78907124 394.37121249 215.47942352 394.37166214 C214.3337672 394.37188357 213.18811088 394.372105 212.0077377 394.37233314 C193.45363972 394.37627921 174.89958106 394.39372838 156.34549826 394.41702166 C137.27959695 394.44076355 118.21371534 394.45319882 99.14779902 394.45436358 C88.44978092 394.45527878 77.75181406 394.46099186 67.05381012 394.4791832 C57.94232197 394.49462254 48.83090089 394.4996821 39.71940213 394.49144509 C35.07540275 394.48755207 30.43153827 394.48840194 25.78755569 394.50250244 C21.52605209 394.51532261 17.26478364 394.51397343 13.00327998 394.50191173 C11.47161377 394.49996867 9.93993042 394.50296782 8.40828818 394.51175609 C-10.91532631 394.61550267 -28.3268517 391.30953103 -43.87897491 379.13142776 C-44.57764679 378.59775589 -45.27631866 378.06408401 -45.99616241 377.51424026 C-55.45023171 369.82591154 -61.63614493 359.44564107 -65.87897491 348.13142776 C-66.13352479 347.47267875 -66.38807467 346.81392973 -66.65033817 346.13521862 C-69.91936449 336.22822902 -69.30749563 325.96337445 -69.28302765 315.65901566 C-69.28873632 313.48656743 -69.2957025 311.31412221 -69.30382538 309.14168167 C-69.32170763 303.26824129 -69.3205988 297.39495068 -69.31488299 291.52149129 C-69.31178691 286.61526749 -69.31788761 281.70907229 -69.32392174 276.80285257 C-69.33794639 265.23518856 -69.33642015 253.66759846 -69.32501984 242.09993362 C-69.31351407 230.16126069 -69.32766029 218.22281175 -69.35441631 206.2841683 C-69.37654127 196.02832648 -69.38321871 185.77255515 -69.3773399 175.51669115 C-69.37396467 169.39321579 -69.37642427 163.26988436 -69.39359093 157.14642906 C-69.40900902 151.39662034 -69.40516171 145.64714559 -69.38628578 139.89735031 C-69.38258701 137.78495919 -69.3857456 135.67254357 -69.39617157 133.56017494 C-69.40929369 130.68254017 -69.39791259 127.80602578 -69.38018036 124.92844009 C-69.38978537 124.0876952 -69.39939037 123.24695031 -69.40928644 122.3807283 C-69.36378117 118.80583311 -69.20810873 116.5910063 -67.09764957 113.64411449 C-64.87897491 112.13142776 -64.87897491 112.13142776 -60.87897491 111.13142776 C-60.87897491 105.85142776 -60.87897491 100.57142776 -60.87897491 95.13142776 C-62.52897491 94.80142776 -64.17897491 94.47142776 -65.87897491 94.13142776 C-68.4664623 91.78701488 -68.85147457 90.35339129 -69.28302765 86.8701973 C-69.34114944 79.28362232 -69.34114944 79.28362232 -69.32501984 76.49959183 C-69.31663234 74.2977545 -69.34506827 72.09862553 -69.37702179 69.89705276 C-69.4766904 50.17670747 -62.52787773 33.52358767 -48.87897491 19.13142776 C-35.684517 6.45133007 -18.17574286 0.01939956 0 0 Z " fill="#393937" transform="translate(68.87897491455078,58.86857223510742)"/>
<path d="M0 0 C56.1 0 112.2 0 170 0 C170.33 14.85 170.66 29.7 171 45 C174.39803698 53.69856834 174.39803698 53.69856834 181 58 C184.1443772 59.04812573 186.37404707 59.1375276 189.67570496 59.15821838 C190.85781052 59.1680072 192.03991608 59.17779602 193.25784302 59.18788147 C195.20531937 59.19651466 195.20531937 59.19651466 197.19213867 59.20532227 C198.57187696 59.21490154 199.95161232 59.22491165 201.3313446 59.23532104 C205.07896257 59.26237088 208.82659313 59.28338002 212.57425475 59.30332303 C216.49006305 59.32518209 220.40583252 59.35257117 224.3216095 59.37937927 C231.7375919 59.42930724 239.15359586 59.47424569 246.56962043 59.51740164 C256.5902624 59.57600206 266.61085332 59.6422895 276.6314497 59.70815182 C292.42093207 59.81172814 308.21045819 59.9050162 324 60 C324 82.44 324 104.88 324 128 C313.81898438 128.02578125 303.63796875 128.0515625 293.1484375 128.078125 C286.70440775 128.10328686 280.26040802 128.12945129 273.81640625 128.16015625 C263.58480019 128.2087217 253.35329397 128.2531553 243.12158203 128.27099609 C235.67001925 128.28400805 228.21865921 128.31096093 220.7672106 128.35461307 C216.82214769 128.37723831 212.87733493 128.39291006 208.93220139 128.39188385 C205.21711917 128.39113785 201.50259014 128.40906374 197.78765106 128.44116783 C195.77781512 128.45371751 193.76788635 128.4465981 191.75802612 128.43885803 C183.0645786 128.49471583 183.0645786 128.49471583 176 133 C171.13893179 138.3865891 170.85000343 142.57502286 170.84178162 149.59892273 C170.83684364 150.48761687 170.83190566 151.376311 170.82681805 152.29193527 C170.81141206 155.28145426 170.80307402 158.27095174 170.79467773 161.26049805 C170.78510165 163.39884634 170.77509173 165.53719273 170.76467896 167.67553711 C170.73759462 173.49127753 170.71660417 179.3070261 170.69667697 185.12279487 C170.67483916 191.19669063 170.6474397 197.2705612 170.62062073 203.34443665 C170.57066398 214.85097074 170.52573622 226.3575188 170.48259836 237.86408025 C170.42402971 253.4095225 170.35772684 268.95493161 170.29184818 284.50034428 C170.18822685 309.00020721 170.09496869 333.50009846 170 358 C113.9 358 57.8 358 0 358 C0 239.86 0 121.72 0 0 Z " fill="#F8CC5E" transform="translate(171,77)"/>
<path d="M0 0 C45.21 0 90.42 0 137 0 C137 22.77 137 45.54 137 69 C91.79 69 46.58 69 0 69 C-0.33 59.43 -0.66 49.86 -1 40 C-4.57125354 35.74275212 -4.57125354 35.74275212 -9 35 C-9 29.39 -9 23.78 -9 18 C-7.02 17.01 -5.04 16.02 -3 15 C0.06334169 10.92898075 0.06334169 10.92898075 0 0 Z " fill="#F6CA5E" transform="translate(17,136)"/>
<path d="M0 0 C45.21 0 90.42 0 137 0 C137 22.77 137 45.54 137 69 C91.79 69 46.58 69 0 69 C0 46.23 0 23.46 0 0 Z " fill="#F6CA5E" transform="translate(358,307)"/>
<path d="M0 0 C45.21 0 90.42 0 137 0 C137 22.77 137 45.54 137 69 C91.79 69 46.58 69 0 69 C0 46.23 0 23.46 0 0 Z " fill="#F6CA5E" transform="translate(17,307)"/>
<path d="M0 0 C45.21 0 90.42 0 137 0 C137 22.44 137 44.88 137 68 C91.79 68 46.58 68 0 68 C0 45.56 0 23.12 0 0 Z " fill="#F8CC5E" transform="translate(358,222)"/>
<path d="M0 0 C45.21 0 90.42 0 137 0 C137 22.44 137 44.88 137 68 C91.79 68 46.58 68 0 68 C0 45.56 0 23.12 0 0 Z " fill="#F8CC5E" transform="translate(17,222)"/>
<path d="M0 0 C44.55 0 89.1 0 135 0 C131.72180867 14.75186099 125.55410544 25.52748715 112.9765625 34.20703125 C103.18563984 40.10471301 94.13787829 42.16181274 82.87353516 42.11352539 C81.97533051 42.11367142 81.07712585 42.11381744 80.15170288 42.1139679 C77.19746443 42.11327398 74.24328987 42.10550605 71.2890625 42.09765625 C69.23497553 42.09579022 67.18088811 42.09436719 65.12680054 42.09336853 C59.73129031 42.08955794 54.33580717 42.07974012 48.94030762 42.06866455 C42.46078552 42.05661639 35.98125434 42.05204125 29.50172424 42.04621124 C19.66779734 42.03652758 9.83392984 42.0173608 0 42 C0 28.14 0 14.28 0 0 Z " fill="#F8CC5E" transform="translate(359,393)"/>
<path d="M0 0 C44.55 0 89.1 0 135 0 C135 13.86 135 27.72 135 42 C112.81091537 42.12032643 112.81091537 42.12032643 103.28710938 42.14648438 C96.81136619 42.16435542 90.33575135 42.18540171 83.86010742 42.22631836 C78.63404631 42.25912944 73.40812302 42.27689854 68.18196678 42.28463173 C66.19706239 42.29013644 64.21216477 42.3008848 62.22731972 42.31719017 C44.49061249 42.45698228 28.31625712 41.29850894 14.55078125 28.6171875 C6.49751482 20.21907087 2.51263538 11.30685921 0 0 Z " fill="#F8CC5E" transform="translate(18,393)"/>
<path d="M0 0 C22.39854175 -0.16043524 22.39854175 -0.16043524 32.01953125 -0.1953125 C38.55889023 -0.21913168 45.09802307 -0.2471683 51.63720703 -0.30175781 C56.91515439 -0.3455377 62.1928589 -0.36920442 67.47097397 -0.37950897 C69.47460624 -0.38684306 71.47822674 -0.40116312 73.4817543 -0.42292023 C91.98062193 -0.61563524 107.98532056 1.64305759 122 15 C124.44921875 18.0859375 124.44921875 18.0859375 126.6875 21.375 C127.80705078 22.99535156 127.80705078 22.99535156 128.94921875 24.6484375 C132.58015228 30.5824203 134.00284832 35.01993827 135 42 C90.45 42 45.9 42 0 42 C0 28.14 0 14.28 0 0 Z " fill="#F8CC5E" transform="translate(359,77)"/>
<path d="M0 0 C0.88903519 -0.00029205 1.77807037 -0.00058411 2.69404602 -0.00088501 C5.59414892 0.00049369 8.49398569 0.01598517 11.39404297 0.03173828 C13.41999166 0.03547362 15.44594216 0.03831813 17.47189331 0.04031372 C22.77532029 0.0479092 28.07863578 0.06752217 33.38201904 0.08972168 C39.76066789 0.11388821 46.13935425 0.12298056 52.51803589 0.1346283 C62.18251136 0.15394925 71.84674273 0.19230033 81.51123047 0.22705078 C81.51123047 14.08705078 81.51123047 27.94705078 81.51123047 42.22705078 C37.29123047 42.22705078 -6.92876953 42.22705078 -52.48876953 42.22705078 C-52.48876953 32.49262225 -48.08124325 22.97945643 -41.27392578 15.80908203 C-28.87344102 4.81959335 -16.50346142 -0.14561248 0 0 Z " fill="#F8CC5E" transform="translate(71.48876953125,76.77294921875)"/>
</svg>
